<?xml version="1.0" encoding="UTF-8" standalone="no"?>
<!-- Created with Inkscape (http://www.inkscape.org/) -->

<svg
   xmlns:dc="http://purl.org/dc/elements/1.1/"
   xmlns:cc="http://creativecommons.org/ns#"
   xmlns:rdf="http://www.w3.org/1999/02/22-rdf-syntax-ns#"
   xmlns:svg="http://www.w3.org/2000/svg"
   xmlns="http://www.w3.org/2000/svg"
   xmlns:sodipodi="http://sodipodi.sourceforge.net/DTD/sodipodi-0.dtd"
   xmlns:inkscape="http://www.inkscape.org/namespaces/inkscape"
   width="200"
   height="600"
   viewBox="0 0 200 600.00001"
   id="svg4175"
   version="1.1"
   inkscape:version="0.91 r13725"
   sodipodi:docname="0.svg">
  <defs
     id="defs4177" />
  <sodipodi:namedview
     id="base"
     pagecolor="#ffffff"
     bordercolor="#666666"
     borderopacity="1.0"
     inkscape:pageopacity="0.0"
     inkscape:pageshadow="2"
     inkscape:zoom="1"
     inkscape:cx="113.57143"
     inkscape:cy="312"
     inkscape:document-units="px"
     inkscape:current-layer="layer1"
     showgrid="false"
     units="px"
     showguides="true"
     inkscape:guide-bbox="true"
     inkscape:window-width="1440"
     inkscape:window-height="853"
     inkscape:window-x="-4"
     inkscape:window-y="-4"
     inkscape:window-maximized="1">
    <sodipodi:guide
       position="-187,100"
       orientation="0,1"
       id="guide4723"
       inkscape:label=""
       inkscape:color="rgb(0,0,255)" />
    <sodipodi:guide
       position="100,657.00001"
       orientation="1,0"
       id="guide4725"
       inkscape:label=""
       inkscape:color="rgb(0,0,255)" />
  </sodipodi:namedview>
  <metadata
     id="metadata4180">
    <rdf:RDF>
      <cc:Work
         rdf:about="">
        <dc:format>image/svg+xml</dc:format>
        <dc:type
           rdf:resource="http://purl.org/dc/dcmitype/StillImage" />
        <dc:title></dc:title>
      </cc:Work>
    </rdf:RDF>
  </metadata>
  <g
     inkscape:label="Layer 1"
     inkscape:groupmode="layer"
     id="layer1"
     transform="translate(0,-452.36216)">
    <path
       style="opacity:1;fill:#333333;fill-opacity:1;fill-rule:nonzero;stroke:none;stroke-width:0.70866144;stroke-linecap:round;stroke-linejoin:round;stroke-miterlimit:4;stroke-dasharray:none;stroke-dashoffset:0;stroke-opacity:1"
       d="M 74 5 L 74 34 L 26 34 L 26 372 L 74 372 L 74 462.05664 A 46 46 0 0 0 54 500 A 46 46 0 0 0 100 546 A 46 46 0 0 0 146 500 A 46 46 0 0 0 126 462.11328 L 126 372 L 174 372 L 174 34 L 126 34 L 126 5 L 74 5 z M 107 48 L 160 48 L 160 65 L 107 65 L 107 48 z M 107 68 L 160 68 L 160 85 L 107 85 L 107 68 z M 107 88 L 160 88 L 160 105 L 107 105 L 107 88 z M 107 108 L 160 108 L 160 125 L 107 125 L 107 108 z M 107 128 L 160 128 L 160 145 L 107 145 L 107 128 z M 100 468 A 32 32 0 0 1 132 500 A 32 32 0 0 1 100 532 A 32 32 0 0 1 68 500 A 32 32 0 0 1 100 468 z "
       id="path4727"
       transform="translate(0,452.36216)" />
  </g>
</svg>
