<?xml version="1.0" encoding="UTF-8" standalone="no"?>
<!-- Created with Inkscape (http://www.inkscape.org/) -->

<svg
   xmlns:dc="http://purl.org/dc/elements/1.1/"
   xmlns:cc="http://creativecommons.org/ns#"
   xmlns:rdf="http://www.w3.org/1999/02/22-rdf-syntax-ns#"
   xmlns:svg="http://www.w3.org/2000/svg"
   xmlns="http://www.w3.org/2000/svg"
   xmlns:sodipodi="http://sodipodi.sourceforge.net/DTD/sodipodi-0.dtd"
   xmlns:inkscape="http://www.inkscape.org/namespaces/inkscape"
   width="400"
   height="600"
   viewBox="0 0 400 600.00001"
   id="svg5342"
   version="1.1"
   inkscape:version="0.91 r13725"
   sodipodi:docname="rekord.svg">
  <defs
     id="defs5344" />
  <sodipodi:namedview
     id="base"
     pagecolor="#ffffff"
     bordercolor="#666666"
     borderopacity="1.0"
     inkscape:pageopacity="0.0"
     inkscape:pageshadow="2"
     inkscape:zoom="0.49497475"
     inkscape:cx="245.79863"
     inkscape:cy="301.46521"
     inkscape:document-units="px"
     inkscape:current-layer="layer1"
     showgrid="false"
     showguides="true"
     inkscape:guide-bbox="true"
     units="px"
     inkscape:window-width="1440"
     inkscape:window-height="853"
     inkscape:window-x="-4"
     inkscape:window-y="-4"
     inkscape:window-maximized="1" />
  <metadata
     id="metadata5347">
    <rdf:RDF>
      <cc:Work
         rdf:about="">
        <dc:format>image/svg+xml</dc:format>
        <dc:type
           rdf:resource="http://purl.org/dc/dcmitype/StillImage" />
        <dc:title></dc:title>
      </cc:Work>
    </rdf:RDF>
  </metadata>
  <g
     inkscape:label="Layer 1"
     inkscape:groupmode="layer"
     id="layer1"
     transform="translate(0,-452.36216)">
    <path
       style="opacity:1;fill:#b6b6b6;fill-opacity:1;fill-rule:nonzero;stroke:none;stroke-width:0.70866144;stroke-linecap:round;stroke-linejoin:round;stroke-miterlimit:4;stroke-dasharray:none;stroke-dashoffset:0;stroke-opacity:1"
       d="m 0,457.38823 0,594.97397 10.29396,0 0,-468.36156 305.63049,0 0,-12.61957 -43.99547,-43.99615 43.99547,-43.99544 0,-10.56065 -305.63049,0 0,-15.4406 z m 160.46018,39.63562 c 3.37423,0 6.29333,0.72328 8.75713,2.1694 2.51732,1.39257 4.57914,3.37441 6.18594,5.94529 1.66033,2.51734 2.86557,5.57041 3.61544,9.15896 0.80342,3.58854 1.20469,7.55149 1.20469,11.88987 0,4.33839 -0.40127,8.30204 -1.20469,11.89058 -0.74987,3.53499 -1.95511,6.58806 -3.61544,9.15894 -1.6068,2.51734 -3.66862,4.47181 -6.18594,5.86438 -2.4638,1.39257 -5.3829,2.0892 -8.75713,2.0892 -3.37433,0 -6.32003,-0.69663 -8.83743,-2.0892 -2.46373,-1.39257 -4.52624,-3.34704 -6.18663,-5.86438 -1.6068,-2.57088 -2.81205,-5.62395 -3.61545,-9.15894 -0.8034,-3.58854 -1.20469,-7.55219 -1.20469,-11.89058 0,-4.33838 0.40129,-8.30133 1.20469,-11.88987 0.8034,-3.58855 2.00865,-6.64162 3.61545,-9.15896 1.66039,-2.57088 3.7229,-4.55272 6.18663,-5.94529 2.5174,-1.44612 5.4631,-2.1694 8.83743,-2.1694 z m -121.44962,0.72336 c 2.78513,0 5.30223,0.34798 7.55176,1.04426 2.30309,0.64273 4.25826,1.6873 5.86507,3.13343 1.66037,1.39257 2.91892,3.21375 3.77589,5.46327 0.91053,2.24954 1.36583,4.95395 1.36583,8.114 0,3.21363 -0.4553,5.97204 -1.36583,8.27515 -0.91053,2.24953 -2.19643,4.09736 -3.85681,5.54349 -1.66036,1.39257 -3.66886,2.41049 -6.02551,3.05322 -2.30309,0.64272 -4.8735,0.96402 -7.71219,0.96402 l -3.3748,0 0,20.64703 -7.23019,0 0,-54.87205 c 3.74922,-0.91052 7.41824,-1.36582 11.00678,-1.36582 z m 163.50501,0 c 2.78514,0 5.30225,0.34798 7.55175,1.04426 2.3031,0.64273 4.25828,1.6873 5.86508,3.13343 1.6604,1.39257 2.91889,3.21375 3.77588,5.46327 0.91052,2.24954 1.36582,4.95395 1.36582,8.114 0,3.21363 -0.4553,5.97204 -1.36582,8.27515 -0.91052,2.24953 -2.19569,4.09736 -3.85609,5.54349 -1.66033,1.39257 -3.66883,2.41049 -6.02551,3.05322 -2.3031,0.64272 -4.87421,0.96402 -7.71288,0.96402 l -3.37412,0 0,20.64703 -7.23088,0 0,-54.87205 c 3.74918,-0.91052 7.41822,-1.36582 11.00677,-1.36582 z m -135.59685,0.56223 24.98585,0 0,6.18595 -17.75566,0 0,17.27365 16.06826,0 0,6.02552 -16.06826,0 0,20.00457 19.04127,0 0,6.18595 -26.27146,0 z m 36.56118,0 7.23022,0 0,24.58406 c 1.39258,-1.76748 2.86579,-3.77597 4.41902,-6.0255 1.55327,-2.24953 3.0798,-4.49936 4.5795,-6.74889 1.55323,-2.24953 2.99909,-4.39131 4.33813,-6.42659 1.33896,-2.08887 2.46426,-3.88337 3.37478,-5.38308 l 7.87332,0 c -1.17834,1.82106 -2.51753,3.82955 -4.01722,6.02552 -1.44617,2.19597 -2.94599,4.47245 -4.49927,6.8291 -1.55321,2.30309 -3.1331,4.57957 -4.73991,6.82911 -1.55326,2.24951 -3.05313,4.33798 -4.49924,6.26616 1.6068,1.6068 3.3473,3.64194 5.22189,6.10572 1.8746,2.41022 3.72246,4.98133 5.5435,7.7129 1.82103,2.67803 3.53564,5.40979 5.14245,8.19493 1.60681,2.78513 2.89198,5.35554 3.85609,7.7122 l -8.11472,0 c -1.12482,-2.46377 -2.43661,-4.98088 -3.9363,-7.55176 -1.44613,-2.5709 -2.99933,-5.03468 -4.6597,-7.39134 -1.60681,-2.41022 -3.26733,-4.63266 -4.98128,-6.66795 -1.66037,-2.0353 -3.29424,-3.74915 -4.90104,-5.14171 l 0,26.75276 -7.23022,0 z m 128.2731,0 25.7092,0 0,49.56992 5.30281,0 0,20.9693 -6.90927,0 0,-14.86358 -30.04734,0 0,14.86358 -6.90934,0 0,-20.9693 4.90035,0 c 1.66039,-2.67803 2.99958,-5.62376 4.01722,-8.83738 1.07122,-3.21362 1.90117,-6.69532 2.49028,-10.44454 0.58917,-3.74922 0.96452,-7.7662 1.12523,-12.05103 0.21423,-4.33837 0.32086,-8.99796 0.32086,-13.97906 z m -71.29282,5.06149 c -2.19598,0 -4.07047,0.56264 -5.62374,1.68741 -1.4997,1.12476 -2.73163,2.70461 -3.69567,4.7399 -0.96411,1.98173 -1.68737,4.36484 -2.16942,7.14996 -0.42847,2.78515 -0.64312,5.86487 -0.64312,9.23917 0,3.3743 0.21465,6.45403 0.64312,9.23916 0.48205,2.78514 1.20531,5.16895 2.16942,7.15068 0.96404,1.98173 2.19597,3.53492 3.69567,4.65968 1.55327,1.07122 3.42776,1.60648 5.62374,1.60648 2.19596,0 4.04377,-0.53526 5.54345,-1.60648 1.55329,-1.12476 2.81177,-2.67795 3.77588,-4.65968 0.96411,-1.98173 1.65998,-4.36554 2.0885,-7.15068 0.42847,-2.78513 0.64312,-5.86486 0.64312,-9.23916 0,-3.3743 -0.21465,-6.45402 -0.64312,-9.23917 -0.42852,-2.78512 -1.12439,-5.16823 -2.0885,-7.14996 -0.96411,-2.03529 -2.22259,-3.61514 -3.77588,-4.7399 -1.49968,-1.12477 -3.34749,-1.68741 -5.54345,-1.68741 z m -121.3694,0.72267 c -1.39257,0 -2.67849,0.0807 -3.85681,0.24136 l 0,22.656 2.89278,0 c 1.82104,0 3.4542,-0.1873 4.90033,-0.56222 1.4997,-0.42849 2.75825,-1.09845 3.77589,-2.00898 1.01765,-0.91052 1.79424,-2.08839 2.32985,-3.53454 0.5356,-1.44611 0.80359,-3.24064 0.80359,-5.38305 0,-2.14242 -0.26799,-3.93692 -0.80359,-5.38306 -0.53561,-1.49969 -1.28484,-2.67756 -2.24893,-3.53451 -0.91052,-0.91053 -2.03578,-1.55314 -3.37479,-1.92806 -1.33901,-0.37492 -2.81152,-0.56294 -4.41832,-0.56294 z m 163.505,0 c -1.39256,0 -2.67774,0.0807 -3.8561,0.24136 l 0,22.656 2.89206,0 c 1.82111,0 3.45495,-0.1873 4.90105,-0.56222 1.49969,-0.42849 2.75825,-1.09845 3.77587,-2.00898 1.0177,-0.91052 1.79427,-2.08839 2.32985,-3.53454 0.53564,-1.44611 0.80361,-3.24064 0.80361,-5.38305 0,-2.14242 -0.26797,-3.93692 -0.80361,-5.38306 -0.53558,-1.49969 -1.28553,-2.67756 -2.24956,-3.53451 -0.91059,-0.91053 -2.03513,-1.55314 -3.37411,-1.92806 -1.33905,-0.37492 -2.81226,-0.56294 -4.41906,-0.56294 z m 36.3881,0.40179 c 0,8.67679 -0.48197,16.65742 -1.44609,23.94161 -0.91044,7.23065 -2.785,13.7114 -5.62367,19.44236 l 18.31719,0 0,-43.38397 z"
       id="path5910"
       inkscape:connector-curvature="0"
       sodipodi:nodetypes="ccccccccccccscccscccscccssccsscccscccsccccsscccscccsccccsccccccccccccccccsccccccccccsccccccccccccccccccccccscscscccscscscssssccssccscsssccsssccscsssccsscccccc" />
  </g>
</svg>
