<?xml version="1.0" encoding="UTF-8" standalone="no"?>
<!-- Created with Inkscape (http://www.inkscape.org/) -->

<svg
   xmlns:dc="http://purl.org/dc/elements/1.1/"
   xmlns:cc="http://creativecommons.org/ns#"
   xmlns:rdf="http://www.w3.org/1999/02/22-rdf-syntax-ns#"
   xmlns:svg="http://www.w3.org/2000/svg"
   xmlns="http://www.w3.org/2000/svg"
   xmlns:sodipodi="http://sodipodi.sourceforge.net/DTD/sodipodi-0.dtd"
   xmlns:inkscape="http://www.inkscape.org/namespaces/inkscape"
   width="400"
   height="600"
   viewBox="0 0 400 600.00001"
   id="svg5342"
   version="1.1"
   inkscape:version="0.91 r13725"
   sodipodi:docname="start.svg">
  <defs
     id="defs5344" />
  <sodipodi:namedview
     id="base"
     pagecolor="#ffffff"
     bordercolor="#666666"
     borderopacity="1.0"
     inkscape:pageopacity="0.0"
     inkscape:pageshadow="2"
     inkscape:zoom="0.49497475"
     inkscape:cx="-94.622775"
     inkscape:cy="301.46521"
     inkscape:document-units="px"
     inkscape:current-layer="layer1"
     showgrid="false"
     showguides="true"
     inkscape:guide-bbox="true"
     units="px"
     inkscape:window-width="1440"
     inkscape:window-height="853"
     inkscape:window-x="-4"
     inkscape:window-y="-4"
     inkscape:window-maximized="1" />
  <metadata
     id="metadata5347">
    <rdf:RDF>
      <cc:Work
         rdf:about="">
        <dc:format>image/svg+xml</dc:format>
        <dc:type
           rdf:resource="http://purl.org/dc/dcmitype/StillImage" />
        <dc:title></dc:title>
      </cc:Work>
    </rdf:RDF>
  </metadata>
  <g
     inkscape:label="Layer 1"
     inkscape:groupmode="layer"
     id="layer1"
     transform="translate(0,-452.36216)">
    <path
       style="opacity:1;fill:#b6b6b6;fill-opacity:1;fill-rule:nonzero;stroke:none;stroke-width:0.70866144;stroke-linecap:round;stroke-linejoin:round;stroke-miterlimit:4;stroke-dasharray:none;stroke-dashoffset:0;stroke-opacity:1"
       d="m 0,457.38827 0,594.97393 10.29393,0 0,-468.36152 253.22412,0 0,-12.61957 -43.99545,-43.99615 43.99545,-43.99544 0,-10.56065 -253.22412,0 0,-15.4406 -10.29393,0 z m 49.01047,40.57843 c 2.35664,0 4.55315,0.32131 6.58843,0.96404 2.03532,0.58915 3.69512,1.33909 4.98059,2.24962 l -2.16872,6.0255 c -1.28544,-0.85696 -2.67799,-1.55358 -4.17768,-2.08918 -1.44612,-0.5356 -3.1333,-0.80359 -5.06147,-0.80359 -4.28483,0 -7.39122,1.79452 -9.31938,5.38305 -1.92819,3.53499 -2.89279,9.05184 -2.89279,16.55028 0,7.552 1.01793,13.36351 3.05321,17.43407 2.03532,4.0706 5.35564,6.10574 9.96184,6.10574 2.19596,0 3.96385,-0.26799 5.30286,-0.80359 1.39254,-0.5356 2.73177,-1.23223 4.01724,-2.08919 l 2.00826,5.70464 c -1.2319,0.96408 -2.86575,1.79398 -4.90104,2.49029 -1.98174,0.69627 -4.28485,1.04424 -6.90934,1.04424 -6.53437,0 -11.54187,-2.43642 -15.02331,-7.31043 -3.4814,-4.87398 -5.2219,-12.39931 -5.2219,-22.57577 0,-5.19535 0.48194,-9.58764 1.446,-13.17618 1.01769,-3.58855 2.41019,-6.50761 4.17768,-8.75715 1.7675,-2.24953 3.85594,-3.85604 6.26618,-4.82013 2.41022,-1.01765 5.03468,-1.52626 7.87334,-1.52626 z m 105.61002,0.72267 c 2.78513,0 5.30294,0.34796 7.55247,1.04424 2.30308,0.64273 4.25755,1.68732 5.86435,3.13343 1.66038,1.39258 2.91962,3.21377 3.77662,5.46328 0.91049,2.24954 1.36581,4.95465 1.36581,8.11471 0,3.21362 -0.45532,5.97203 -1.36581,8.27514 -0.91054,2.24953 -2.19644,4.09736 -3.85681,5.5435 -1.66037,1.39256 -3.66886,2.40977 -6.02551,3.0525 -2.30311,0.64272 -4.87352,0.96403 -7.71222,0.96403 l -3.37478,0 0,20.64773 -7.23018,0 0,-54.87273 c 3.74921,-0.91054 7.41752,-1.36583 11.00606,-1.36583 z m -88.96828,0.56223 31.976082,0 0,6.18665 -12.37259,0 0,49.48968 -7.23089,0 0,-49.48968 -12.372602,0 0,-6.18665 z m 47.11903,0 7.63198,0 c 1.28545,4.01703 2.54401,8.08802 3.7759,12.21216 1.28545,4.07058 2.51735,8.35554 3.69567,12.85462 1.23186,4.49905 2.43709,9.26596 3.61541,14.30063 1.2319,5.03468 2.4638,10.47084 3.69567,16.30892 l -7.23089,0 c -0.42849,-2.41022 -0.88376,-4.79402 -1.36582,-7.15068 -0.42847,-2.35665 -0.88376,-4.71309 -1.3658,-7.06975 l -17.51359,0 c -0.53562,2.35666 -1.01826,4.7131 -1.44677,7.06975 -0.42848,2.35666 -0.85642,4.74046 -1.2849,7.15068 l -6.989518,0 c 1.17835,-5.83808 2.382868,-11.27424 3.614728,-16.30892 1.2319,-5.03467 2.43713,-9.80158 3.61546,-14.30063 1.2319,-4.49908 2.46379,-8.78404 3.69567,-12.85462 1.28547,-4.12414 2.57137,-8.19513 3.8568,-12.21216 z m 64.13371,0 31.97608,0 0,6.18665 -12.3726,0 0,49.48968 -7.23088,0 0,-49.48968 -12.3726,0 0,-6.18665 z m -22.20354,5.78486 c -1.39258,0 -2.67848,0.08 -3.8568,0.24065 l 0,22.65601 2.89208,0 c 1.82104,0 3.45493,-0.18731 4.90105,-0.56224 1.49968,-0.42848 2.75821,-1.09774 3.77589,-2.00827 1.01764,-0.91052 1.79422,-2.0891 2.32984,-3.53522 0.5356,-1.44614 0.80357,-3.23995 0.80357,-5.38236 0,-2.14242 -0.26797,-3.93693 -0.80357,-5.38307 -0.53562,-1.49967 -1.28555,-2.67825 -2.24965,-3.53522 -0.91053,-0.91053 -2.03506,-1.55313 -3.37406,-1.92805 -1.33902,-0.37492 -2.81155,-0.56223 -4.41835,-0.56223 z m -38.2345,2.41005 c -1.33902,4.44551 -2.62491,8.91778 -3.85682,13.41685 -1.23186,4.49907 -2.40975,9.10533 -3.53451,13.81864 l 14.70172,0 c -1.07121,-4.71331 -2.22241,-9.31957 -3.4543,-13.81864 -1.23187,-4.49907 -2.51708,-8.97134 -3.85609,-13.41685 z"
       id="rect5902"
       inkscape:connector-curvature="0" />
  </g>
</svg>
