<?xml version="1.0" encoding="UTF-8" standalone="no"?>
<!-- Created with Inkscape (http://www.inkscape.org/) -->

<svg
   xmlns:dc="http://purl.org/dc/elements/1.1/"
   xmlns:cc="http://creativecommons.org/ns#"
   xmlns:rdf="http://www.w3.org/1999/02/22-rdf-syntax-ns#"
   xmlns:svg="http://www.w3.org/2000/svg"
   xmlns="http://www.w3.org/2000/svg"
   xmlns:sodipodi="http://sodipodi.sourceforge.net/DTD/sodipodi-0.dtd"
   xmlns:inkscape="http://www.inkscape.org/namespaces/inkscape"
   width="1000"
   height="500"
   viewBox="0 0 999.99999 499.99998"
   id="svg4140"
   version="1.1"
   inkscape:version="0.91 r13725"
   sodipodi:docname="main.svg">
  <defs
     id="defs4142" />
  <sodipodi:namedview
     id="base"
     pagecolor="#ffffff"
     bordercolor="#666666"
     borderopacity="1.0"
     inkscape:pageopacity="0.0"
     inkscape:pageshadow="2"
     inkscape:zoom="0.7"
     inkscape:cx="600.68714"
     inkscape:cy="241.95526"
     inkscape:document-units="px"
     inkscape:current-layer="layer1"
     showgrid="false"
     width="1000mm"
     units="px"
     inkscape:window-width="1440"
     inkscape:window-height="853"
     inkscape:window-x="-4"
     inkscape:window-y="-4"
     inkscape:window-maximized="1" />
  <metadata
     id="metadata4145">
    <rdf:RDF>
      <cc:Work
         rdf:about="">
        <dc:format>image/svg+xml</dc:format>
        <dc:type
           rdf:resource="http://purl.org/dc/dcmitype/StillImage" />
        <dc:title></dc:title>
      </cc:Work>
    </rdf:RDF>
  </metadata>
  <g
     inkscape:label="Layer 1"
     inkscape:groupmode="layer"
     id="layer1"
     transform="translate(0,-552.36224)">
    <g
       style="font-style:normal;font-variant:normal;font-weight:bold;font-stretch:normal;font-size:39.30847931px;line-height:125%;font-family:Aharoni;-inkscape-font-specification:'Aharoni Bold';letter-spacing:0px;word-spacing:0px;fill:#eaeaea;fill-opacity:1;stroke:none;stroke-width:1px;stroke-linecap:butt;stroke-linejoin:miter;stroke-opacity:1"
       id="text4688"
       transform="translate(-40,-50)">
      <path
         d="m 626.44348,953.76256 4.67771,-9.98435 3.53777,0 -6.21074,12.65733 q 0.82547,1.76888 1.72957,3.69499 0.9434,1.88681 1.80819,3.81293 0.9041,1.8868 1.69026,3.69499 0.78617,1.80819 1.3758,3.38053 l -3.49845,0 q -0.4324,-1.17925 -1.02202,-2.55505 -0.55032,-1.4151 -1.25788,-2.86952 -0.66824,-1.45441 -1.4151,-2.94813 -0.70755,-1.53303 -1.41511,-2.94814 -0.70755,1.41511 -1.45441,2.94814 -0.74686,1.49372 -1.4151,2.94813 -0.66825,1.45442 -1.25788,2.86952 -0.55031,1.3758 -0.9434,2.55505 l -3.41984,0 q 0.55032,-1.53303 1.33649,-3.30191 0.78617,-1.76888 1.65096,-3.61638 0.86478,-1.88681 1.72957,-3.77361 0.9041,-1.88681 1.72957,-3.61638 l -6.28935,-12.93249 3.61638,0 4.71701,9.98435 z"
         style="font-style:normal;font-variant:normal;font-weight:normal;font-stretch:normal;font-family:'Ubuntu Condensed';-inkscape-font-specification:'Ubuntu Condensed, ';fill:#eaeaea;fill-opacity:1"
         id="path4752"
         inkscape:connector-curvature="0" />
      <path
         d="m 657.32828,957.41825 q 0,3.18398 -0.58963,5.81765 -0.55032,2.59436 -1.76888,4.48117 -1.17925,1.8475 -3.02675,2.86952 -1.80819,1.02202 -4.28463,1.02202 -2.47643,0 -4.32393,-1.02202 -1.80819,-1.02202 -3.02675,-2.86952 -1.17926,-1.88681 -1.76888,-4.48117 -0.58963,-2.63367 -0.58963,-5.81765 0,-3.18399 0.58963,-5.81766 0.58962,-2.63366 1.76888,-4.48116 1.21856,-1.88681 3.02675,-2.90883 1.8475,-1.06133 4.32393,-1.06133 2.47644,0 4.28463,1.06133 1.8475,1.02202 3.02675,2.90883 1.21856,1.8475 1.76888,4.48116 0.58963,2.63367 0.58963,5.81766 z m -3.77361,0 q 0,-2.47644 -0.31447,-4.52048 -0.31447,-2.04404 -1.02202,-3.49845 -0.70755,-1.49372 -1.8475,-2.3192 -1.10064,-0.82548 -2.71229,-0.82548 -1.61164,0 -2.75159,0.82548 -1.10064,0.82548 -1.80819,2.3192 -0.70755,1.45441 -1.06133,3.49845 -0.31447,2.04404 -0.31447,4.52048 0,2.47643 0.31447,4.52047 0.35378,2.04404 1.06133,3.49846 0.70755,1.45441 1.80819,2.27989 1.13995,0.78617 2.75159,0.78617 1.61165,0 2.71229,-0.78617 1.13995,-0.82548 1.8475,-2.27989 0.70755,-1.45442 1.02202,-3.49846 0.31447,-2.04404 0.31447,-4.52047 z"
         style="font-style:normal;font-variant:normal;font-weight:normal;font-stretch:normal;font-family:'Ubuntu Condensed';-inkscape-font-specification:'Ubuntu Condensed, ';fill:#eaeaea;fill-opacity:1"
         id="path4754"
         inkscape:connector-curvature="0" />
      <path
         d="m 677.70051,943.77821 0,27.24077 -3.53776,0 0,-24.25333 -5.69973,0 0,1.76888 q 0,2.00473 -0.0786,4.08808 -0.0393,2.08335 -0.23585,4.1667 -0.15723,2.04404 -0.51101,4.04878 -0.31446,2.00473 -0.82547,3.81292 -0.94341,3.34122 -2.90883,5.07079 -1.92612,1.69027 -4.91356,1.69027 l -0.35378,-3.02676 q 1.69027,-0.27516 2.86952,-1.21856 1.17926,-0.9434 1.96542,-3.30191 0.55032,-1.65096 0.86479,-3.53776 0.31447,-1.88681 0.43239,-3.85224 0.15724,-2.00473 0.19655,-4.00946 0.0393,-2.04404 0.0393,-3.93085 l 0,-4.75632 12.69663,0 z"
         style="font-style:normal;font-variant:normal;font-weight:normal;font-stretch:normal;font-family:'Ubuntu Condensed';-inkscape-font-specification:'Ubuntu Condensed, ';fill:#eaeaea;fill-opacity:1"
         id="path4756"
         inkscape:connector-curvature="0" />
      <path
         d="m 702.54839,957.41825 q 0,3.18398 -0.58963,5.81765 -0.55032,2.59436 -1.76888,4.48117 -1.17926,1.8475 -3.02675,2.86952 -1.80819,1.02202 -4.28463,1.02202 -2.47643,0 -4.32393,-1.02202 -1.80819,-1.02202 -3.02675,-2.86952 -1.17926,-1.88681 -1.76889,-4.48117 -0.58962,-2.63367 -0.58962,-5.81765 0,-3.18399 0.58962,-5.81766 0.58963,-2.63366 1.76889,-4.48116 1.21856,-1.88681 3.02675,-2.90883 1.8475,-1.06133 4.32393,-1.06133 2.47644,0 4.28463,1.06133 1.84749,1.02202 3.02675,2.90883 1.21856,1.8475 1.76888,4.48116 0.58963,2.63367 0.58963,5.81766 z m -3.77362,0 q 0,-2.47644 -0.31446,-4.52048 -0.31447,-2.04404 -1.02202,-3.49845 -0.70756,-1.49372 -1.8475,-2.3192 -1.10064,-0.82548 -2.71229,-0.82548 -1.61165,0 -2.75159,0.82548 -1.10064,0.82548 -1.80819,2.3192 -0.70755,1.45441 -1.06133,3.49845 -0.31447,2.04404 -0.31447,4.52048 0,2.47643 0.31447,4.52047 0.35378,2.04404 1.06133,3.49846 0.70755,1.45441 1.80819,2.27989 1.13994,0.78617 2.75159,0.78617 1.61165,0 2.71229,-0.78617 1.13994,-0.82548 1.8475,-2.27989 0.70755,-1.45442 1.02202,-3.49846 0.31446,-2.04404 0.31446,-4.52047 z"
         style="font-style:normal;font-variant:normal;font-weight:normal;font-stretch:normal;font-family:'Ubuntu Condensed';-inkscape-font-specification:'Ubuntu Condensed, ';fill:#eaeaea;fill-opacity:1"
         id="path4758"
         inkscape:connector-curvature="0" />
      <path
         d="m 716.83579,971.60861 q -4.79563,0 -7.35068,-3.57707 -2.55505,-3.57707 -2.55505,-11.04569 0,-3.81292 0.70755,-6.44659 0.74686,-2.63366 2.04404,-4.28462 1.29718,-1.65096 3.06606,-2.35851 1.76888,-0.74686 3.85223,-0.74686 1.72957,0 3.2233,0.4717 1.49372,0.4324 2.43712,1.10064 l -1.06133,2.94814 q -0.9434,-0.62894 -2.04404,-1.02203 -1.06133,-0.39308 -2.47643,-0.39308 -3.14468,0 -4.55979,2.63367 -1.4151,2.59436 -1.4151,8.09754 0,5.5425 1.49372,8.52994 1.49372,2.98745 4.87425,2.98745 1.61165,0 2.59436,-0.39309 1.02202,-0.39308 1.96543,-1.02202 l 0.98271,2.79091 q -0.9041,0.70755 -2.39782,1.21856 -1.45441,0.51101 -3.38053,0.51101 z"
         style="font-style:normal;font-variant:normal;font-weight:normal;font-stretch:normal;font-family:'Ubuntu Condensed';-inkscape-font-specification:'Ubuntu Condensed, ';fill:#eaeaea;fill-opacity:1"
         id="path4760"
         inkscape:connector-curvature="0" />
      <path
         d="m 740.38709,943.77821 0,3.02675 -6.0535,0 0,24.21402 -3.53776,0 0,-24.21402 -6.05351,0 0,-3.02675 15.64477,0 z"
         style="font-style:normal;font-variant:normal;font-weight:normal;font-stretch:normal;font-family:'Ubuntu Condensed';-inkscape-font-specification:'Ubuntu Condensed, ';fill:#eaeaea;fill-opacity:1"
         id="path4762"
         inkscape:connector-curvature="0" />
      <path
         d="m 761.5111,957.41825 q 0,3.18398 -0.58962,5.81765 -0.55032,2.59436 -1.76889,4.48117 -1.17925,1.8475 -3.02675,2.86952 -1.80819,1.02202 -4.28462,1.02202 -2.47644,0 -4.32394,-1.02202 -1.80819,-1.02202 -3.02675,-2.86952 -1.17925,-1.88681 -1.76888,-4.48117 -0.58963,-2.63367 -0.58963,-5.81765 0,-3.18399 0.58963,-5.81766 0.58963,-2.63366 1.76888,-4.48116 1.21856,-1.88681 3.02675,-2.90883 1.8475,-1.06133 4.32394,-1.06133 2.47643,0 4.28462,1.06133 1.8475,1.02202 3.02675,2.90883 1.21857,1.8475 1.76889,4.48116 0.58962,2.63367 0.58962,5.81766 z m -3.77361,0 q 0,-2.47644 -0.31447,-4.52048 -0.31447,-2.04404 -1.02202,-3.49845 -0.70755,-1.49372 -1.8475,-2.3192 -1.10064,-0.82548 -2.71228,-0.82548 -1.61165,0 -2.7516,0.82548 -1.10063,0.82548 -1.80819,2.3192 -0.70755,1.45441 -1.06133,3.49845 -0.31446,2.04404 -0.31446,4.52048 0,2.47643 0.31446,4.52047 0.35378,2.04404 1.06133,3.49846 0.70756,1.45441 1.80819,2.27989 1.13995,0.78617 2.7516,0.78617 1.61164,0 2.71228,-0.78617 1.13995,-0.82548 1.8475,-2.27989 0.70755,-1.45442 1.02202,-3.49846 0.31447,-2.04404 0.31447,-4.52047 z"
         style="font-style:normal;font-variant:normal;font-weight:normal;font-stretch:normal;font-family:'Ubuntu Condensed';-inkscape-font-specification:'Ubuntu Condensed, ';fill:#eaeaea;fill-opacity:1"
         id="path4764"
         inkscape:connector-curvature="0" />
      <path
         d="m 770.57048,955.37421 2.43713,0 q 4.87425,0 4.87425,-4.40255 0,-1.3758 -0.4324,-2.24059 -0.39308,-0.90409 -1.06133,-1.37579 -0.66824,-0.51101 -1.57233,-0.70756 -0.86479,-0.19654 -1.8475,-0.19654 -0.58963,0 -1.21857,0.0393 -0.58962,0.0393 -1.17925,0.11793 l 0,8.76579 z m 0,2.83021 0,9.82712 q 0.74686,0.11792 1.45441,0.19654 0.74686,0.0786 1.45442,0.0786 1.10063,0 2.08335,-0.23585 0.98271,-0.23585 1.69026,-0.78617 0.74686,-0.55032 1.13995,-1.49373 0.43239,-0.98271 0.43239,-2.39781 0,-2.43713 -1.33649,-3.81293 -1.29718,-1.37579 -4.08808,-1.37579 l -2.83021,0 z m -3.53776,-14.03313 q 1.37579,-0.31447 2.7909,-0.4717 1.45441,-0.19654 2.86952,-0.19654 1.76888,0 3.34122,0.35377 1.61165,0.31447 2.83021,1.13995 1.21856,0.78617 1.92611,2.12266 0.74687,1.29718 0.74687,3.2626 0,2.43713 -1.02202,4.00947 -1.02203,1.53303 -2.63367,2.27989 2.00473,0.78617 3.30191,2.39781 1.29718,1.61165 1.29718,4.44186 0,2.12266 -0.70755,3.57707 -0.66825,1.45442 -1.92612,2.39782 -1.25787,0.9041 -3.02675,1.33649 -1.72958,0.39308 -3.81292,0.39308 -1.3758,0 -2.86952,-0.15723 -1.49373,-0.15723 -3.10537,-0.4717 l 0,-26.4153 z"
         style="font-style:normal;font-variant:normal;font-weight:normal;font-stretch:normal;font-family:'Ubuntu Condensed';-inkscape-font-specification:'Ubuntu Condensed, ';fill:#eaeaea;fill-opacity:1"
         id="path4766"
         inkscape:connector-curvature="0" />
      <path
         d="m 790.91753,969.21079 q 0,0.9041 -0.66824,1.61165 -0.62894,0.70755 -1.69027,0.70755 -1.06133,0 -1.69026,-0.70755 -0.62894,-0.70755 -0.62894,-1.61165 0,-0.9434 0.62894,-1.65095 0.62893,-0.70756 1.69026,-0.70756 1.06133,0 1.69027,0.70756 0.66824,0.70755 0.66824,1.65095 z"
         style="font-style:normal;font-variant:normal;font-weight:normal;font-stretch:normal;font-family:'Ubuntu Condensed';-inkscape-font-specification:'Ubuntu Condensed, ';fill:#eaeaea;fill-opacity:1"
         id="path4768"
         inkscape:connector-curvature="0" />
      <path
         d="m 796.4373,944.17129 q 2.7516,-0.66824 5.38527,-0.66824 2.04404,0 3.69499,0.51101 1.69027,0.4717 2.86952,1.53303 1.21856,1.02202 1.8475,2.67297 0.66824,1.65096 0.66824,3.97016 0,2.35851 -0.66824,4.04877 -0.66824,1.65096 -1.88681,2.71229 -1.21856,1.02202 -2.94813,1.49372 -1.69027,0.4717 -3.77362,0.4717 l -1.65095,0 0,10.10228 -3.53777,0 0,-26.84769 z m 3.53777,13.64004 1.4151,0 q 1.33649,0 2.39782,-0.27516 1.10064,-0.31446 1.8475,-0.98271 0.74686,-0.66824 1.13994,-1.72957 0.39309,-1.06133 0.39309,-2.63367 0,-1.57234 -0.39309,-2.63367 -0.39308,-1.10064 -1.10063,-1.72957 -0.66825,-0.66825 -1.65096,-0.9434 -0.98271,-0.27516 -2.16197,-0.27516 -1.02202,0 -1.8868,0.11792 l 0,11.08499 z"
         style="font-style:normal;font-variant:normal;font-weight:normal;font-stretch:normal;font-family:'Ubuntu Condensed';-inkscape-font-specification:'Ubuntu Condensed, ';fill:#eaeaea;fill-opacity:1"
         id="path4770"
         inkscape:connector-curvature="0" />
      <path
         d="m 823.72292,967.63845 q -2.16197,-0.19654 -3.89154,-1.06133 -1.72957,-0.90409 -2.94814,-2.3192 -1.21856,-1.45441 -1.8868,-3.41983 -0.66825,-2.00474 -0.66825,-4.36325 0,-2.3585 0.66825,-4.32393 0.66824,-2.00473 1.8868,-3.45914 1.21857,-1.45442 2.94814,-2.3192 1.72957,-0.9041 3.89154,-1.10064 l 0,-3.26261 3.38053,0 0,3.26261 q 2.12266,0.19654 3.85223,1.10064 1.76888,0.86478 2.98744,2.3192 1.21857,1.45441 1.88681,3.45914 0.66824,1.96543 0.66824,4.32393 0,2.35851 -0.66824,4.36325 -0.66824,1.96542 -1.88681,3.41983 -1.21856,1.41511 -2.98744,2.3192 -1.72957,0.86479 -3.85223,1.06133 l 0,3.38053 -3.38053,0 0,-3.38053 z m -5.81766,-11.16361 q 0,3.45915 1.41511,5.66043 1.4151,2.20127 4.40255,2.55505 l 0,-16.50956 q -2.98745,0.39308 -4.40255,2.63366 -1.41511,2.20128 -1.41511,5.66042 z m 15.01584,0 q 0,-3.45914 -1.4151,-5.66042 -1.41511,-2.24058 -4.40255,-2.63366 l 0,16.50956 q 2.98744,-0.35378 4.40255,-2.55505 1.4151,-2.20128 1.4151,-5.66043 z"
         style="font-style:normal;font-variant:normal;font-weight:normal;font-stretch:normal;font-family:'Ubuntu Condensed';-inkscape-font-specification:'Ubuntu Condensed, ';fill:#eaeaea;fill-opacity:1"
         id="path4772"
         inkscape:connector-curvature="0" />
    </g>
    <g
       style="font-style:normal;font-variant:normal;font-weight:bold;font-stretch:normal;font-size:60.78051758px;line-height:125%;font-family:Aharoni;-inkscape-font-specification:'Aharoni Bold';letter-spacing:0px;word-spacing:0px;fill:#707070;fill-opacity:1;stroke:none;stroke-width:1px;stroke-linecap:butt;stroke-linejoin:miter;stroke-opacity:1"
       id="text4692"
       transform="matrix(1.0834563,0,0,1.0834563,-81.685926,-44.930167)">
      <path
         d="m 499.4943,661.29091 18.90274,0 0,4.6801 -13.4325,0 0,10.94049 2.61357,0 q 3.28214,0 5.95649,0.72936 2.67434,0.72937 4.55853,2.37044 1.94498,1.5803 2.97825,4.19386 1.09405,2.55278 1.09405,6.19961 0,3.58605 -1.03327,6.13884 -1.03327,2.55278 -2.91746,4.19385 -1.8842,1.58029 -4.49776,2.37044 -2.61356,0.72937 -5.77415,0.72937 -4.19386,0 -8.44849,-1.03327 l 0,-41.51309 z m 5.47024,37.56236 q 1.45874,0.18234 3.03903,0.18234 1.88419,0 3.40371,-0.42547 1.58029,-0.42546 2.67434,-1.39795 1.09405,-1.03327 1.70186,-2.67434 0.6078,-1.64108 0.6078,-4.13308 0,-4.80166 -2.43122,-6.74663 -2.43122,-1.94498 -6.74664,-1.94498 l -2.24888,0 0,17.14011 z"
         style="font-style:normal;font-variant:normal;font-weight:normal;font-stretch:normal;font-family:'Ubuntu Condensed';-inkscape-font-specification:'Ubuntu Condensed, ';fill:#707070;fill-opacity:1"
         id="path4725"
         inkscape:connector-curvature="0" />
      <path
         d="m 530.71839,672.17062 q 1.58029,-0.66859 3.34293,-1.03327 1.76263,-0.42546 3.82917,-0.42546 4.25464,0 6.92898,2.67434 2.67434,2.61356 2.67434,8.20537 l 0,21.15162 q -2.1881,0.6078 -4.49776,0.97249 -2.24888,0.36468 -4.43697,0.36468 -2.1881,0 -4.13308,-0.54702 -1.8842,-0.54703 -3.34293,-1.76264 -1.39795,-1.21561 -2.24888,-3.03903 -0.85092,-1.88419 -0.85092,-4.55853 0,-2.49201 0.72936,-4.31542 0.79015,-1.8842 2.12732,-3.09981 1.33717,-1.27639 3.16059,-1.88419 1.82341,-0.66859 3.95073,-0.66859 2.00576,0 4.43698,0.48624 l 0,-2.91746 q 0,-3.52527 -1.39795,-4.92322 -1.33718,-1.39795 -3.88996,-1.39795 -1.39795,0 -2.67434,0.3039 -1.21561,0.24312 -2.61356,0.85093 l -1.09405,-4.43698 z m 2.492,21.94177 q 0,2.7959 1.45873,4.13307 1.45873,1.33717 4.13308,1.33717 1.64107,0 3.58605,-0.42546 l 0,-10.15035 q -1.82342,-0.48624 -3.58605,-0.48624 -1.15483,0 -2.1881,0.3039 -1.03327,0.24312 -1.82342,0.91171 -0.72936,0.6078 -1.15483,1.70185 -0.42546,1.03327 -0.42546,2.67435 z"
         style="font-style:normal;font-variant:normal;font-weight:normal;font-stretch:normal;font-family:'Ubuntu Condensed';-inkscape-font-specification:'Ubuntu Condensed, ';fill:#707070;fill-opacity:1"
         id="path4727"
         inkscape:connector-curvature="0" />
      <path
         d="m 572.08523,703.4118 0,-27.41201 -6.5643,0 0,3.22137 q 0,5.83493 -0.72936,10.39347 -0.66859,4.55854 -2.24888,7.84068 -1.58029,3.22137 -3.88995,4.86244 -2.30966,1.5803 -5.77415,1.70186 l -0.60781,-4.6801 q 2.61356,-0.42546 3.95074,-1.70185 1.39795,-1.33718 2.24887,-3.40371 1.03327,-2.73513 1.45874,-6.80742 0.42546,-4.13308 0.42546,-9.23864 l 0,-6.68586 16.95776,0 0,31.90977 -5.22712,0 z"
         style="font-style:normal;font-variant:normal;font-weight:normal;font-stretch:normal;font-family:'Ubuntu Condensed';-inkscape-font-specification:'Ubuntu Condensed, ';fill:#707070;fill-opacity:1"
         id="path4729"
         inkscape:connector-curvature="0" />
      <path
         d="m 587.22528,672.17062 q 1.58029,-0.66859 3.34293,-1.03327 1.76263,-0.42546 3.82917,-0.42546 4.25464,0 6.92898,2.67434 2.67434,2.61356 2.67434,8.20537 l 0,21.15162 q -2.1881,0.6078 -4.49776,0.97249 -2.24888,0.36468 -4.43698,0.36468 -2.18809,0 -4.13307,-0.54702 -1.8842,-0.54703 -3.34293,-1.76264 -1.39795,-1.21561 -2.24888,-3.03903 -0.85093,-1.88419 -0.85093,-4.55853 0,-2.49201 0.72937,-4.31542 0.79015,-1.8842 2.12732,-3.09981 1.33717,-1.27639 3.16059,-1.88419 1.82341,-0.66859 3.95073,-0.66859 2.00576,0 4.43698,0.48624 l 0,-2.91746 q 0,-3.52527 -1.39795,-4.92322 -1.33718,-1.39795 -3.88996,-1.39795 -1.39795,0 -2.67434,0.3039 -1.21561,0.24312 -2.61356,0.85093 l -1.09405,-4.43698 z m 2.492,21.94177 q 0,2.7959 1.45873,4.13307 1.45873,1.33717 4.13308,1.33717 1.64107,0 3.58605,-0.42546 l 0,-10.15035 q -1.82342,-0.48624 -3.58605,-0.48624 -1.15483,0 -2.1881,0.3039 -1.03327,0.24312 -1.82342,0.91171 -0.72936,0.6078 -1.15483,1.70185 -0.42546,1.03327 -0.42546,2.67435 z"
         style="font-style:normal;font-variant:normal;font-weight:normal;font-stretch:normal;font-family:'Ubuntu Condensed';-inkscape-font-specification:'Ubuntu Condensed, ';fill:#707070;fill-opacity:1"
         id="path4731"
         inkscape:connector-curvature="0" />
      <path
         d="m 633.6369,671.50203 0,31.90977 -5.22713,0 0,-14.22264 -10.08956,0 0,14.22264 -5.22713,0 0,-31.90977 5.22713,0 0,13.18937 10.08956,0 0,-13.18937 5.22713,0 z"
         style="font-style:normal;font-variant:normal;font-weight:normal;font-stretch:normal;font-family:'Ubuntu Condensed';-inkscape-font-specification:'Ubuntu Condensed, ';fill:#707070;fill-opacity:1"
         id="path4733"
         inkscape:connector-curvature="0" />
      <path
         d="m 652.85209,704.20195 q -3.28215,0 -5.47025,-1.27639 -2.1881,-1.27639 -3.58605,-3.46449 -1.33717,-2.24888 -1.94498,-5.2879 -0.54702,-3.03903 -0.54702,-6.62508 0,-7.90147 2.85668,-12.33845 2.91747,-4.49775 8.7524,-4.49775 1.76263,0 3.16058,0.42546 1.39795,0.42546 2.61356,1.09405 l -1.33717,4.31542 q -1.88419,-1.21561 -4.19385,-1.21561 -3.28215,0 -4.86244,2.97824 -1.51952,2.97825 -1.51952,9.23864 0,2.61356 0.30391,4.86244 0.3039,2.1881 1.03326,3.76839 0.79015,1.5803 2.00576,2.492 1.27639,0.91171 3.22137,0.91171 1.33717,0 2.37044,-0.3039 1.09405,-0.36468 2.06654,-0.91171 l 1.15483,4.0723 q -0.97249,0.66858 -2.61357,1.21561 -1.58029,0.54702 -3.46448,0.54702 z"
         style="font-style:normal;font-variant:normal;font-weight:normal;font-stretch:normal;font-family:'Ubuntu Condensed';-inkscape-font-specification:'Ubuntu Condensed, ';fill:#707070;fill-opacity:1"
         id="path4735"
         inkscape:connector-curvature="0" />
      <path
         d="m 684.85399,671.31969 0,32.09211 -4.92322,0 0,-23.09659 q -1.27639,2.37044 -2.85668,5.40946 -1.5803,3.03903 -3.16059,6.19962 -1.51951,3.16058 -2.91747,6.19961 -1.33717,2.97824 -2.24887,5.2879 l -4.13308,0 0,-32.09211 4.86244,0 0,21.03006 q 1.09405,-2.492 2.55278,-5.34869 1.45874,-2.91746 2.97825,-5.71336 1.51951,-2.85669 2.97824,-5.40947 1.51952,-2.61356 2.79591,-4.55854 l 4.07229,0 z"
         style="font-style:normal;font-variant:normal;font-weight:normal;font-stretch:normal;font-family:'Ubuntu Condensed';-inkscape-font-specification:'Ubuntu Condensed, ';fill:#707070;fill-opacity:1"
         id="path4737"
         inkscape:connector-curvature="0" />
      <path
         d="m 699.4584,698.61014 q 1.76264,0.97249 3.76839,0.97249 1.51952,0 2.67435,-0.6078 1.15483,-0.60781 1.94497,-2.00576 0.85093,-1.39795 1.27639,-3.70761 0.42547,-2.30966 0.42547,-5.71337 0,-6.5643 -1.70186,-9.3602 -1.64107,-2.85668 -5.2879,-2.85668 -0.66859,0 -1.45873,0.12156 -0.79015,0.0608 -1.64108,0.3039 l 0,22.85347 z m 0,16.04606 -5.22712,0 0,-42.30324 q 1.70185,-0.72937 3.82917,-1.15483 2.1881,-0.48624 4.43698,-0.48624 3.34293,0 5.71337,1.15483 2.43122,1.15483 3.88995,3.34292 1.51951,2.12732 2.1881,5.28791 0.72936,3.09981 0.72936,7.11132 0,8.08381 -2.61356,12.33844 -2.55278,4.25464 -8.38771,4.25464 -1.39795,0 -2.492,-0.3039 -1.09405,-0.24312 -2.06654,-0.72937 l 0,11.48752 z"
         style="font-style:normal;font-variant:normal;font-weight:normal;font-stretch:normal;font-family:'Ubuntu Condensed';-inkscape-font-specification:'Ubuntu Condensed, ';fill:#707070;fill-opacity:1"
         id="path4739"
         inkscape:connector-curvature="0" />
      <path
         d="m 729.66252,696.78673 q 1.76264,-6.07805 3.22137,-12.21689 1.45873,-6.13883 2.7959,-13.06781 l 5.16635,0 q -0.91171,4.43698 -2.00576,8.7524 -1.03327,4.31541 -2.1881,8.32693 -1.09405,4.01151 -2.24888,7.59756 -1.09405,3.52527 -2.06653,6.44274 -1.15483,3.40371 -2.24888,5.71337 -1.03327,2.37044 -2.30966,3.76839 -1.21561,1.45873 -2.67435,2.06654 -1.45873,0.66858 -3.46449,0.66858 -1.09404,0 -2.18809,-0.3039 -1.09405,-0.24312 -1.82342,-0.54703 l 0.97249,-4.25463 q 1.58029,0.66858 2.97824,0.66858 1.76264,0 2.85669,-1.27639 1.09405,-1.27639 2.12732,-3.82917 l 0.6078,-1.51951 q -1.15483,-3.16059 -2.37044,-6.98976 -1.15483,-3.88996 -2.30966,-8.08381 -1.09405,-4.19386 -2.12732,-8.57005 -1.03327,-4.43698 -1.88419,-8.63084 l 5.53102,0 q 0.48625,2.85669 1.15483,6.2604 0.66859,3.4037 1.39796,6.80741 0.79014,3.40371 1.58029,6.62508 0.79015,3.16059 1.51951,5.59181 z"
         style="font-style:normal;font-variant:normal;font-weight:normal;font-stretch:normal;font-family:'Ubuntu Condensed';-inkscape-font-specification:'Ubuntu Condensed, ';fill:#707070;fill-opacity:1"
         id="path4741"
         inkscape:connector-curvature="0" />
      <path
         d="m 778.62028,687.48731 q 0,3.76839 -0.66859,6.8682 -0.6078,3.03902 -2.00575,5.22712 -1.33717,2.1881 -3.40371,3.40371 -2.06654,1.21561 -4.86244,1.21561 -2.61357,0 -4.55854,-1.03327 -1.94498,-1.09405 -3.28215,-2.97824 -1.33717,-1.94498 -2.06654,-4.61932 -0.72936,-2.73513 -0.9117,-6.07805 l -5.22713,0 0,13.91873 -5.22712,0 0,-31.60586 5.22712,0 0,12.82468 5.22713,0 q 0.24312,-3.16058 0.97248,-5.71336 0.79015,-2.55279 2.12732,-4.3762 1.39795,-1.82342 3.28215,-2.79591 1.94498,-1.03326 4.43698,-1.03326 2.7959,0 4.86244,1.21561 2.06654,1.21561 3.40371,3.46449 1.39795,2.18809 2.00575,5.2879 0.66859,3.09981 0.66859,6.80742 z m -5.47025,0 q 0,-2.67434 -0.3039,-4.86244 -0.3039,-2.24888 -0.97249,-3.82918 -0.6078,-1.64107 -1.70185,-2.492 -1.03327,-0.9117 -2.55278,-0.9117 -1.51952,0 -2.55279,0.9117 -1.03326,0.85093 -1.70185,2.492 -0.66859,1.5803 -0.97249,3.82918 -0.3039,2.1881 -0.3039,4.86244 0,2.67434 0.3039,4.92322 0.3039,2.1881 0.97249,3.76839 0.66859,1.5803 1.70185,2.492 1.03327,0.85093 2.55279,0.85093 1.51951,0 2.55278,-0.85093 1.09405,-0.9117 1.70185,-2.492 0.66859,-1.58029 0.97249,-3.76839 0.3039,-2.24888 0.3039,-4.92322 z"
         style="font-style:normal;font-variant:normal;font-weight:normal;font-stretch:normal;font-family:'Ubuntu Condensed';-inkscape-font-specification:'Ubuntu Condensed, ';fill:#707070;fill-opacity:1"
         id="path4743"
         inkscape:connector-curvature="0" />
      <path
         d="m 786.29383,671.50203 5.22712,0 0,27.41202 8.32693,0 0,-27.41202 5.22713,0 0,27.41202 8.32693,0 0,-27.41202 5.22712,0 0,27.65514 3.88996,0 0,13.06781 -5.10557,0 0,-8.81318 -31.11962,0 0,-31.90977 z"
         style="font-style:normal;font-variant:normal;font-weight:normal;font-stretch:normal;font-family:'Ubuntu Condensed';-inkscape-font-specification:'Ubuntu Condensed, ';fill:#707070;fill-opacity:1"
         id="path4745"
         inkscape:connector-curvature="0" />
      <path
         d="m 848.0829,671.31969 0,32.09211 -4.92322,0 0,-23.09659 q -1.27639,2.37044 -2.85668,5.40946 -1.5803,3.03903 -3.16059,6.19962 -1.51951,3.16058 -2.91746,6.19961 -1.33717,2.97824 -2.24888,5.2879 l -4.13308,0 0,-32.09211 4.86244,0 0,21.03006 q 1.09405,-2.492 2.55279,-5.34869 1.45873,-2.91746 2.97824,-5.71336 1.51951,-2.85669 2.97825,-5.40947 1.51951,-2.61356 2.7959,-4.55854 l 4.07229,0 z"
         style="font-style:normal;font-variant:normal;font-weight:normal;font-stretch:normal;font-family:'Ubuntu Condensed';-inkscape-font-specification:'Ubuntu Condensed, ';fill:#707070;fill-opacity:1"
         id="path4747"
         inkscape:connector-curvature="0" />
      <path
         d="m 877.76091,671.31969 0,32.09211 -4.92322,0 0,-23.09659 q -1.27639,2.37044 -2.85668,5.40946 -1.5803,3.03903 -3.16059,6.19962 -1.51951,3.16058 -2.91746,6.19961 -1.33718,2.97824 -2.24888,5.2879 l -4.13308,0 0,-32.09211 4.86244,0 0,21.03006 q 1.09405,-2.492 2.55278,-5.34869 1.45874,-2.91746 2.97825,-5.71336 1.51951,-2.85669 2.97825,-5.40947 1.51951,-2.61356 2.7959,-4.55854 l 4.07229,0 z m -10.08956,-8.75239 q 1.64107,0 2.55278,-1.03327 0.91171,-1.03327 1.27639,-3.34293 l 3.82917,0.85093 q -0.6078,3.95073 -2.67434,5.65258 -2.06654,1.70186 -4.984,1.70186 -2.91747,0 -4.984,-1.70186 -2.06654,-1.70185 -2.67435,-5.65258 l 3.82918,-0.85093 q 0.36468,2.30966 1.27639,3.34293 0.9117,1.03327 2.55278,1.03327 z"
         style="font-style:normal;font-variant:normal;font-weight:normal;font-stretch:normal;font-family:'Ubuntu Condensed';-inkscape-font-specification:'Ubuntu Condensed, ';fill:#707070;fill-opacity:1"
         id="path4749"
         inkscape:connector-curvature="0" />
    </g>
    <g
       style="font-style:normal;font-variant:normal;font-weight:bold;font-stretch:normal;font-size:60.78051758px;line-height:125%;font-family:Aharoni;-inkscape-font-specification:'Aharoni Bold';letter-spacing:0px;word-spacing:0px;fill:#707070;fill-opacity:1;stroke:none;stroke-width:1px;stroke-linecap:butt;stroke-linejoin:miter;stroke-opacity:1"
       id="text4709"
       transform="matrix(1.0834563,0,0,1.0834563,-81.685926,-44.930167)">
      <path
         d="m 785.80133,760.83878 q 1.76263,0.97249 3.76839,0.97249 1.51951,0 2.67434,-0.60781 1.15483,-0.6078 1.94498,-2.00575 0.85093,-1.39795 1.27639,-3.70761 0.42546,-2.30966 0.42546,-5.71337 0,-6.5643 -1.70185,-9.3602 -1.64107,-2.85669 -5.28791,-2.85669 -0.66858,0 -1.45873,0.12156 -0.79014,0.0608 -1.64107,0.30391 l 0,22.85347 z m 0,16.04606 -5.22713,0 0,-42.30324 q 1.70186,-0.72937 3.82918,-1.15483 2.1881,-0.48625 4.43697,-0.48625 3.34293,0 5.71337,1.15483 2.43122,1.15483 3.88996,3.34293 1.51951,2.12732 2.18809,5.28791 0.72937,3.0998 0.72937,7.11132 0,8.08381 -2.61356,12.33844 -2.55278,4.25464 -8.38771,4.25464 -1.39795,0 -2.492,-0.3039 -1.09405,-0.24313 -2.06654,-0.72937 l 0,11.48752 z"
         style="font-style:normal;font-variant:normal;font-weight:normal;font-stretch:normal;font-family:'Ubuntu Condensed';-inkscape-font-specification:'Ubuntu Condensed, ';fill:#707070;fill-opacity:1"
         id="path4714"
         inkscape:connector-curvature="0" />
      <path
         d="m 829.49017,749.71595 q 0,3.76839 -0.66858,6.86819 -0.66859,3.03903 -2.06654,5.22713 -1.33717,2.1881 -3.46449,3.40371 -2.06654,1.21561 -4.92322,1.21561 -2.85668,0 -4.984,-1.21561 -2.12732,-1.21561 -3.52527,-3.40371 -1.33717,-2.1881 -2.00576,-5.22713 -0.66859,-3.0998 -0.66859,-6.86819 0,-3.70762 0.66859,-6.80742 0.66859,-3.09981 2.00576,-5.28791 1.39795,-2.24888 3.52527,-3.46449 2.12732,-1.21561 4.984,-1.21561 2.85668,0 4.92322,1.21561 2.12732,1.21561 3.46449,3.46449 1.39795,2.1881 2.06654,5.28791 0.66858,3.0998 0.66858,6.80742 z m -5.47024,0 q 0,-2.67435 -0.3039,-4.86245 -0.30391,-2.24887 -0.97249,-3.82917 -0.66859,-1.64107 -1.76264,-2.492 -1.09405,-0.91171 -2.61356,-0.91171 -1.58029,0 -2.67434,0.91171 -1.03327,0.85093 -1.76264,2.492 -0.66858,1.5803 -0.97249,3.82917 -0.3039,2.1881 -0.3039,4.86245 0,2.67434 0.3039,4.92322 0.30391,2.1881 0.97249,3.76839 0.72937,1.58029 1.76264,2.492 1.09405,0.85093 2.67434,0.85093 1.51951,0 2.61356,-0.85093 1.09405,-0.91171 1.76264,-2.492 0.66858,-1.58029 0.97249,-3.76839 0.3039,-2.24888 0.3039,-4.92322 z"
         style="font-style:normal;font-variant:normal;font-weight:normal;font-stretch:normal;font-family:'Ubuntu Condensed';-inkscape-font-specification:'Ubuntu Condensed, ';fill:#707070;fill-opacity:1"
         id="path4716"
         inkscape:connector-curvature="0" />
      <path
         d="m 843.40227,730.63086 q -0.54703,1.33718 -0.91171,3.03903 -0.3039,1.64107 -0.54703,3.76839 1.33718,-0.79014 2.91747,-1.15483 1.58029,-0.36468 3.16059,-0.36468 4.74088,0 7.476,3.58605 2.73512,3.52527 2.73512,11.42674 0,7.29366 -2.67434,11.42673 -2.61356,4.0723 -8.08381,4.0723 -3.22137,0 -5.34868,-1.45873 -2.12732,-1.45874 -3.40371,-4.0723 -1.27639,-2.61356 -1.82342,-6.26039 -0.54702,-3.70761 -0.54702,-8.08381 0,-2.12732 0.0608,-4.3762 0.0608,-2.24888 0.24312,-4.43698 0.24312,-2.24887 0.66859,-4.37619 0.42546,-2.12732 1.15483,-4.0723 1.39795,-3.58605 3.52527,-5.53102 2.12731,-2.00576 4.49775,-2.97825 2.37044,-1.03327 4.74088,-1.39795 2.37044,-0.42547 4.3762,-0.91171 l 0.85093,4.6801 q -2.06654,0.48624 -4.01152,0.85093 -1.88419,0.3039 -3.58605,0.97249 -1.70185,0.66858 -3.0998,1.94497 -1.39795,1.27639 -2.37044,3.70761 z m 3.88995,9.84645 q -1.76263,0 -3.09981,0.54702 -1.33717,0.54703 -2.37044,1.33717 -0.0608,1.03327 -0.0608,2.12732 0,1.09405 0,2.24888 0,7.29366 1.21561,11.2444 1.27639,3.88995 4.74088,3.88995 2.492,0 3.7684,-2.43122 1.27639,-2.492 1.27639,-8.50927 0,-5.04479 -1.27639,-7.71913 -1.2764,-2.73512 -4.19386,-2.73512 z"
         style="font-style:normal;font-variant:normal;font-weight:normal;font-stretch:normal;font-family:'Ubuntu Condensed';-inkscape-font-specification:'Ubuntu Condensed, ';fill:#707070;fill-opacity:1"
         id="path4718"
         inkscape:connector-curvature="0" />
      <path
         d="m 886.35319,749.71595 q 0,3.76839 -0.66858,6.86819 -0.66859,3.03903 -2.06654,5.22713 -1.33717,2.1881 -3.46449,3.40371 -2.06654,1.21561 -4.92322,1.21561 -2.85668,0 -4.984,-1.21561 -2.12732,-1.21561 -3.52527,-3.40371 -1.33717,-2.1881 -2.00576,-5.22713 -0.66859,-3.0998 -0.66859,-6.86819 0,-3.70762 0.66859,-6.80742 0.66859,-3.09981 2.00576,-5.28791 1.39795,-2.24888 3.52527,-3.46449 2.12732,-1.21561 4.984,-1.21561 2.85668,0 4.92322,1.21561 2.12732,1.21561 3.46449,3.46449 1.39795,2.1881 2.06654,5.28791 0.66858,3.0998 0.66858,6.80742 z m -5.47024,0 q 0,-2.67435 -0.3039,-4.86245 -0.30391,-2.24887 -0.97249,-3.82917 -0.66859,-1.64107 -1.76264,-2.492 -1.09405,-0.91171 -2.61356,-0.91171 -1.58029,0 -2.67434,0.91171 -1.03327,0.85093 -1.76264,2.492 -0.66858,1.5803 -0.97249,3.82917 -0.3039,2.1881 -0.3039,4.86245 0,2.67434 0.3039,4.92322 0.30391,2.1881 0.97249,3.76839 0.72937,1.58029 1.76264,2.492 1.09405,0.85093 2.67434,0.85093 1.51951,0 2.61356,-0.85093 1.09405,-0.91171 1.76264,-2.492 0.66858,-1.58029 0.97249,-3.76839 0.3039,-2.24888 0.3039,-4.92322 z"
         style="font-style:normal;font-variant:normal;font-weight:normal;font-stretch:normal;font-family:'Ubuntu Condensed';-inkscape-font-specification:'Ubuntu Condensed, ';fill:#707070;fill-opacity:1"
         id="path4720"
         inkscape:connector-curvature="0" />
      <path
         d="m 889.16524,733.73067 21.15162,0 0,4.49776 -7.96224,0 0,27.41201 -5.22713,0 0,-27.41201 -7.96225,0 0,-4.49776 z"
         style="font-style:normal;font-variant:normal;font-weight:normal;font-stretch:normal;font-family:'Ubuntu Condensed';-inkscape-font-specification:'Ubuntu Condensed, ';fill:#707070;fill-opacity:1"
         id="path4722"
         inkscape:connector-curvature="0" />
    </g>
  </g>
</svg>
