<?xml version="1.0" encoding="UTF-8" standalone="no"?>
<!-- Created with Inkscape (http://www.inkscape.org/) -->

<svg
   xmlns:dc="http://purl.org/dc/elements/1.1/"
   xmlns:cc="http://creativecommons.org/ns#"
   xmlns:rdf="http://www.w3.org/1999/02/22-rdf-syntax-ns#"
   xmlns:svg="http://www.w3.org/2000/svg"
   xmlns="http://www.w3.org/2000/svg"
   xmlns:sodipodi="http://sodipodi.sourceforge.net/DTD/sodipodi-0.dtd"
   xmlns:inkscape="http://www.inkscape.org/namespaces/inkscape"
   width="40"
   height="700"
   viewBox="0 0 40 700.00001"
   id="svg4755"
   version="1.1"
   inkscape:version="0.91 r13725"
   sodipodi:docname="0.svg">
  <defs
     id="defs4757" />
  <sodipodi:namedview
     id="base"
     pagecolor="#ffffff"
     bordercolor="#666666"
     borderopacity="1.0"
     inkscape:pageopacity="0.0"
     inkscape:pageshadow="2"
     inkscape:zoom="1"
     inkscape:cx="-6.7896467"
     inkscape:cy="361.61434"
     inkscape:document-units="px"
     inkscape:current-layer="layer1"
     showgrid="false"
     units="px"
     inkscape:window-width="1440"
     inkscape:window-height="853"
     inkscape:window-x="-4"
     inkscape:window-y="-4"
     inkscape:window-maximized="1" />
  <metadata
     id="metadata4760">
    <rdf:RDF>
      <cc:Work
         rdf:about="">
        <dc:format>image/svg+xml</dc:format>
        <dc:type
           rdf:resource="http://purl.org/dc/dcmitype/StillImage" />
        <dc:title></dc:title>
      </cc:Work>
    </rdf:RDF>
  </metadata>
  <g
     inkscape:label="Layer 1"
     inkscape:groupmode="layer"
     id="layer1"
     transform="translate(0,-352.36216)">
    <path
       style="opacity:1;fill:#878787;fill-opacity:1;fill-rule:nonzero;stroke:none;stroke-width:0.70866144;stroke-linecap:round;stroke-linejoin:round;stroke-miterlimit:4;stroke-dasharray:none;stroke-dashoffset:0;stroke-opacity:1"
       d="m 8.08275e-5,352.3622 0,80.34182 L 14.288102,404.0079 l 20.9511,0 -35.2391211725,70.77339 0,38.2554 L 40,432.70141 l 0,-80.33921 -19.045436,0 -0.0012,0.003 -20.95109964,0 0.00115468,-0.003 L 0,352.3622 Z M 40,474.78129 8.08275e-5,555.11657 l 0,38.25409 L 40,513.03669 l 0,-38.2554 z m 0,80.33398 -39.9999191725,80.33528 0,38.25408 L 40,593.36936 40,555.11527 Z m 0,80.33397 -39.9999191725,80.33528 0,38.2541 L 40,673.70333 40,635.44924 Z m 0,80.33266 -39.9999191725,80.33532 0,38.25537 L 40,754.03728 40,715.7819 Z m 0,80.33532 -39.9999191725,80.33524 0,38.2541 L 40,834.37125 40,796.11722 Z m 0,80.33397 -39.9999191725,80.33524 0,38.25411 L 40,914.70522 40,876.45119 Z m 0,80.33263 -39.9999191725,80.33538 0,15.243 11.4577081725,0 L 40,995.03926 40,956.78382 Z m 0,80.33538 -7.589985,15.243 7.589985,0 0,-15.243 z"
       id="rect5303"
       inkscape:connector-curvature="0" />
  </g>
</svg>
